<svg width="112" height="83" viewBox="0 0 112 83" fill="none" xmlns="http://www.w3.org/2000/svg">
<path d="M12.125 81.9999V74.8749H4.50775V81.9999H0.96875V65.0899H4.50775V71.9569H12.125V65.0899H15.6641V81.9999H12.125ZM28.2617 77.8979H22.3202L21.0311 81.9999H17.3983L23.2695 65.0899H27.4297L33.3125 81.9999H29.5507L28.2617 77.8979ZM23.082 75.2499H27.5L25.332 68.3239H25.25L23.082 75.2499ZM37.4727 77.1839C37.5508 77.8709 37.918 78.4299 38.5742 78.8589C39.2227 79.2809 40.0194 79.4919 40.9647 79.4919C41.9022 79.4919 42.668 79.2889 43.2617 78.8829C43.8477 78.4839 44.1406 77.9729 44.1406 77.3479C44.1406 76.8009 43.9218 76.3589 43.4843 76.0229C43.0468 75.6879 42.3163 75.4059 41.2929 75.1799L39.0897 74.6989C35.9882 74.0349 34.4375 72.4609 34.4375 69.9769C34.4375 68.4299 35.0429 67.1759 36.2538 66.2149C37.4569 65.2699 39.0077 64.7969 40.9061 64.7969C42.8593 64.7969 44.4219 65.2619 45.5938 66.1909C46.75 67.1129 47.3438 68.3439 47.375 69.8829H44.0586C44.0039 69.1719 43.6874 68.6089 43.1093 68.1949C42.539 67.7889 41.8085 67.5859 40.9179 67.5859C40.0429 67.5859 39.3398 67.7769 38.8086 68.1599C38.2695 68.5429 38 69.0469 38 69.6719C38 70.1879 38.2187 70.6089 38.6561 70.9379C39.0858 71.2499 39.7891 71.5199 40.7656 71.7459L42.8163 72.1799C44.5117 72.5389 45.7461 73.1019 46.5195 73.8669C47.2929 74.6249 47.6797 75.6479 47.6797 76.9379C47.6797 78.5779 47.0625 79.8789 45.8281 80.8399C44.5938 81.8089 42.9258 82.2929 40.8242 82.2929C38.7852 82.2929 37.1641 81.8399 35.9608 80.9339C34.75 80.0199 34.1171 78.7699 34.0625 77.1839H37.4727ZM61.0159 81.9999V74.8749H53.398V81.9999H49.8593V65.0899H53.398V71.9569H61.0159V65.0899H64.555V81.9999H61.0159ZM74.539 64.8199C76.898 64.8199 78.7699 65.6049 80.1519 67.1759C81.535 68.7459 82.227 70.8709 82.227 73.5509C82.227 76.2299 81.535 78.3519 80.1519 79.9139C78.7699 81.4839 76.898 82.2699 74.539 82.2699C72.18 82.2699 70.312 81.4839 68.938 79.9139C67.555 78.3519 66.8629 76.2299 66.8629 73.5509C66.8629 70.8709 67.555 68.7459 68.938 67.1759C70.32 65.6049 72.188 64.8199 74.539 64.8199ZM74.539 66.3089C72.688 66.3089 71.2189 66.9609 70.1329 68.2659C69.047 69.5699 68.504 71.3319 68.504 73.5509C68.504 75.7619 69.047 77.5199 70.1329 78.8239C71.227 80.1289 72.695 80.7809 74.539 80.7809C76.391 80.7809 77.863 80.1289 78.957 78.8239C80.043 77.5199 80.586 75.7619 80.586 73.5509C80.586 71.3319 80.043 69.5699 78.957 68.2659C77.863 66.9609 76.391 66.3089 74.539 66.3089ZM84.723 81.9999V65.0899H86.3049L96.2189 79.2109H96.3009V65.0899H97.8829V81.9999H96.336L86.3869 67.8669H86.3049V81.9999H84.723ZM111.266 81.9999H101.059V65.0899H111.266V66.5429H102.652V72.6249H110.832V74.0549H102.652V80.5469H111.266V81.9999Z" fill="white"/>
<path d="M31.7818 37.2636C32.8243 36.2211 34.5145 36.2211 35.557 37.2636L43.7363 45.443C44.7788 46.4854 44.7788 48.1756 43.7363 49.2181C42.6939 50.2605 41.0037 50.2605 39.9612 49.2181L31.7818 41.0387C30.7394 39.9962 30.7394 38.306 31.7818 37.2636Z" fill="url(#paint0_linear)"/>
<path d="M32.6717 23.0267C33.7142 21.9842 35.4044 21.9842 36.4469 23.0267L57.8391 44.4189C58.8811 45.4614 58.8811 47.1515 57.8391 48.194C56.7971 49.2365 55.1061 49.2365 54.0641 48.194L32.6717 26.8018C31.6293 25.7593 31.6293 24.0691 32.6717 23.0267Z" fill="url(#paint1_linear)"/>
<path d="M54.0269 1.67145C55.0689 0.629048 56.7589 0.629048 57.8019 1.67145L79.1939 23.0638C80.2369 24.1063 80.2369 25.7963 79.1939 26.8388C78.1519 27.8813 76.4619 27.8813 75.4189 26.8388L54.0269 5.44665C52.9839 4.40415 52.9839 2.71395 54.0269 1.67145Z" fill="url(#paint2_linear)"/>
<path d="M68.2639 0.781556C69.3059 -0.260844 70.9959 -0.260844 72.0389 0.781556L80.2179 8.96096C81.2609 10.0035 81.2609 11.6937 80.2179 12.7361C79.1759 13.7786 77.4859 13.7786 76.4429 12.7361L68.2639 4.55676C67.2209 3.51426 67.2209 1.82406 68.2639 0.781556Z" fill="url(#paint3_linear)"/>
<path d="M65.272 22.6747C64.23 21.6322 62.54 21.6322 61.497 22.6747L53.814 30.3582C52.771 31.4007 52.771 33.0909 53.814 34.1333L62.923 43.2425C63.965 44.285 65.655 44.285 66.698 43.2425L68.583 41.3576L61.21 33.9851C60.132 32.9068 60.132 31.1584 61.21 30.0801C62.288 29.0018 64.037 29.0018 65.115 30.0801L72.488 37.4526L74.381 35.5589C75.424 34.5165 75.424 32.8263 74.381 31.7838L65.272 22.6747Z" fill="url(#paint4_linear)"/>
<path d="M60.041 36.5875C61.084 35.545 62.774 35.545 63.817 36.5875L71.996 44.7669C73.038 45.8094 73.038 47.4995 71.996 48.542C70.954 49.5845 69.263 49.5845 68.221 48.542L60.041 40.3626C58.999 39.3201 58.999 37.63 60.041 36.5875Z" fill="url(#paint5_linear)"/>
<path d="M67.7251 28.9047C68.7681 27.8622 70.4581 27.8622 71.5001 28.9047L79.6801 37.0841C80.7221 38.1265 80.7221 39.8167 79.6801 40.8592C78.6371 41.9016 76.9471 41.9016 75.9051 40.8592L67.7251 32.6798C66.6831 31.6373 66.6831 29.9472 67.7251 28.9047Z" fill="url(#paint6_linear)"/>
<path d="M46.1893 26.649C47.2318 27.6915 48.922 27.6915 49.9644 26.649L57.648 18.9654C58.69 17.923 58.69 16.2328 57.648 15.1903L48.5388 6.08119C47.4964 5.03869 45.8062 5.03869 44.7637 6.08119L42.8789 7.96599L50.2514 15.3385C51.3298 16.4169 51.3298 18.1652 50.2514 19.2435C49.1731 20.3219 47.4248 20.3219 46.3464 19.2435L38.9739 11.871L37.0802 13.7647C36.0377 14.8072 36.0377 16.4974 37.0802 17.5398L46.1893 26.649Z" fill="url(#paint7_linear)"/>
<path d="M51.4201 12.736C50.3777 13.7785 48.6875 13.7785 47.645 12.736L39.4657 4.55673C38.4232 3.51423 38.4232 1.82403 39.4657 0.781631C40.5081 -0.260869 42.1983 -0.260869 43.2408 0.781631L51.4201 8.96093C52.4631 10.0034 52.4631 11.6936 51.4201 12.736Z" fill="url(#paint8_linear)"/>
<path d="M35.2331 8.18808V9.92278C35.2331 10.1183 35.2975 10.3083 35.4163 10.4636L36.8613 12.3516C37.1808 12.7691 37.7907 12.8201 38.175 12.4614L38.8882 11.7957L43.7364 16.6439C44.7789 17.6863 44.7789 19.3765 43.7364 20.419C42.6939 21.4614 41.0038 21.4614 39.9613 20.419L31.7819 12.2396C30.7394 11.1971 30.7394 9.50687 31.7819 8.46447C32.7222 7.52417 34.1895 7.43198 35.2331 8.18808Z" fill="url(#paint9_linear)"/>
<defs>
<linearGradient id="paint0_linear" x1="73.939" y1="6.45747" x2="37.0127" y2="43.3842" gradientUnits="userSpaceOnUse">
<stop offset="0.00264941" stop-color="#783E97"/>
<stop offset="0.888832" stop-color="#32B0E5"/>
</linearGradient>
<linearGradient id="paint1_linear" x1="73.9391" y1="6.45745" x2="37.0128" y2="43.3841" gradientUnits="userSpaceOnUse">
<stop offset="0.00264941" stop-color="#783E97"/>
<stop offset="0.888832" stop-color="#32B0E5"/>
</linearGradient>
<linearGradient id="paint2_linear" x1="73.9389" y1="6.45745" x2="37.0126" y2="43.3841" gradientUnits="userSpaceOnUse">
<stop offset="0.00264941" stop-color="#783E97"/>
<stop offset="0.888832" stop-color="#32B0E5"/>
</linearGradient>
<linearGradient id="paint3_linear" x1="73.9389" y1="6.45736" x2="37.0126" y2="43.3841" gradientUnits="userSpaceOnUse">
<stop offset="0.00264941" stop-color="#783E97"/>
<stop offset="0.888832" stop-color="#32B0E5"/>
</linearGradient>
<linearGradient id="paint4_linear" x1="73.939" y1="6.4574" x2="37.0127" y2="43.3841" gradientUnits="userSpaceOnUse">
<stop offset="0.00264941" stop-color="#783E97"/>
<stop offset="0.888832" stop-color="#32B0E5"/>
</linearGradient>
<linearGradient id="paint5_linear" x1="73.939" y1="6.45734" x2="37.0127" y2="43.384" gradientUnits="userSpaceOnUse">
<stop offset="0.00264941" stop-color="#783E97"/>
<stop offset="0.888832" stop-color="#32B0E5"/>
</linearGradient>
<linearGradient id="paint6_linear" x1="73.9391" y1="6.45728" x2="37.0128" y2="43.384" gradientUnits="userSpaceOnUse">
<stop offset="0.00264941" stop-color="#783E97"/>
<stop offset="0.888832" stop-color="#32B0E5"/>
</linearGradient>
<linearGradient id="paint7_linear" x1="73.939" y1="6.45729" x2="37.0127" y2="43.384" gradientUnits="userSpaceOnUse">
<stop offset="0.00264941" stop-color="#783E97"/>
<stop offset="0.888832" stop-color="#32B0E5"/>
</linearGradient>
<linearGradient id="paint8_linear" x1="73.9391" y1="6.45733" x2="37.0128" y2="43.384" gradientUnits="userSpaceOnUse">
<stop offset="0.00264941" stop-color="#783E97"/>
<stop offset="0.888832" stop-color="#32B0E5"/>
</linearGradient>
<linearGradient id="paint9_linear" x1="73.939" y1="6.45738" x2="37.0127" y2="43.3841" gradientUnits="userSpaceOnUse">
<stop offset="0.00264941" stop-color="#783E97"/>
<stop offset="0.888832" stop-color="#32B0E5"/>
</linearGradient>
</defs>
</svg>
