<svg width="30" height="30" viewBox="0 0 30 30" fill="none" xmlns="http://www.w3.org/2000/svg">

<path d="M18.8043 8.00312L16.8591 8C14.6738 8 13.2616 9.44892 13.2616 11.6915V13.3936H11.3059C11.1369 13.3936 11 13.5306 11 13.6996V16.1656C11 16.3346 11.137 16.4715 11.3059 16.4715H13.2616V22.6941C13.2616 22.8631 13.3985 23 13.5675 23H16.1192C16.2882 23 16.425 22.863 16.425 22.6941V16.4715H18.7118C18.8808 16.4715 19.0176 16.3346 19.0176 16.1656L19.0185 13.6996C19.0185 13.6184 18.9862 13.5407 18.929 13.4833C18.8717 13.4259 18.7937 13.3936 18.7125 13.3936H16.425V11.9507C16.425 11.2572 16.5903 10.9052 17.4936 10.9052L18.804 10.9047C18.9728 10.9047 19.1097 10.7677 19.1097 10.5989V8.30898C19.1097 8.14029 18.973 8.00343 18.8043 8.00312Z" fill="white"/>

</svg>
