<svg width="30" height="30" viewBox="0 0 30 30" fill="none" xmlns="http://www.w3.org/2000/svg">
<path d="M18.42 18.2634C17.6878 18.2634 17.0907 17.6724 17.0907 16.9473C17.0907 16.2224 17.6878 15.6312 18.42 15.6312C19.1523 15.6312 19.7494 16.2224 19.7494 16.9473C19.7494 17.6724 19.1523 18.2634 18.42 18.2634ZM18.6548 20.4233C17.7465 21.32 16.0089 21.3908 15.4988 21.3908C14.9885 21.3908 13.2484 21.32 12.3426 20.4233C12.2075 20.2895 12.2075 20.0747 12.3426 19.9408C12.4779 19.8069 12.6947 19.8069 12.83 19.9408C13.4015 20.5067 14.6237 20.7088 15.4988 20.7088C16.3714 20.7088 17.5959 20.5067 18.1676 19.9408C18.3027 19.8069 18.5195 19.8069 18.6548 19.9408C18.7875 20.0747 18.7875 20.2895 18.6548 20.4233ZM11.2429 16.9474C11.2429 16.2225 11.84 15.6313 12.5723 15.6313C13.3046 15.6313 13.9016 16.2225 13.9016 16.9474C13.9016 17.6724 13.3046 18.2636 12.5723 18.2636C11.84 18.2634 11.2429 17.6724 11.2429 16.9474ZM24 15.6313C24 14.6133 23.1683 13.7898 22.14 13.7898C21.6374 13.7898 21.1831 13.9867 20.849 14.3077C19.5784 13.3983 17.8257 12.8122 15.8737 12.744L16.7208 8.79565L19.4891 9.37926C19.5224 10.0765 20.0988 10.6323 20.8108 10.6323C21.5456 10.6323 22.1401 10.0436 22.1401 9.31608C22.1401 8.58865 21.5456 8 20.8108 8C20.2877 8 19.8412 8.30059 19.6243 8.73504L16.532 8.08331C16.4453 8.06564 16.356 8.08095 16.2819 8.12882C16.2081 8.1768 16.1569 8.25005 16.1392 8.33593C16.1392 8.33593 15.2104 12.7163 15.2104 12.7415C13.2229 12.792 11.4369 13.3806 10.1459 14.3026C9.81168 13.9844 9.36002 13.7898 8.86 13.7898C7.83174 13.7898 7 14.6158 7 15.6313C7 16.379 7.45156 17.0232 8.09965 17.3111C8.07163 17.4931 8.05627 17.6799 8.05627 17.8694C8.05627 20.7037 11.3884 23 15.4988 23C19.609 23 22.9411 20.7037 22.9411 17.8694C22.9411 17.6825 22.9259 17.4981 22.8979 17.3162C23.5434 17.0283 24 16.3841 24 15.6313Z" fill="white"/>
</svg>
