<svg width="5" height="12" viewBox="0 0 5 12" fill="none" xmlns="http://www.w3.org/2000/svg">
<path fill-rule="evenodd" clip-rule="evenodd" d="M4.34659 3.52226C4.3232 3.55323 4.29396 3.56899 4.26375 3.56899C4.23305 3.56899 4.20137 3.55184 4.17847 3.5181L2.51716 1.11503C0.837346 3.53083 0.819314 3.53967 0.78423 3.55654C0.721363 3.58558 0.654597 3.53995 0.633156 3.45366C0.615614 3.38342 0.633646 3.30792 0.674582 3.2656C0.764735 3.15332 1.77058 1.71241 2.43237 0.760463C2.4543 0.728389 2.485 0.710693 2.51765 0.710693C2.54933 0.710693 2.58003 0.728935 2.60294 0.761023L4.34952 3.28745C4.39533 3.35354 4.39386 3.45864 4.34659 3.52226ZM2.50352 1.211C2.56931 1.211 2.62243 1.28511 2.62243 1.37666L2.62291 11.164C2.62291 11.2556 2.57029 11.33 2.50401 11.33C2.43871 11.33 2.38559 11.2556 2.38559 11.164L2.38461 1.37666C2.38461 1.28511 2.43822 1.211 2.50352 1.211Z" fill="#00A651"/>
<path d="M4.34659 3.52226L4.74556 3.82365L4.74792 3.82047L4.34659 3.52226ZM4.17847 3.5181L4.59217 3.23726L4.58975 3.23377L4.17847 3.5181ZM2.51716 1.11503L2.92845 0.830696L2.51836 0.237497L2.10665 0.82958L2.51716 1.11503ZM0.78423 3.55654L0.993906 4.01052L1.00091 4.00716L0.78423 3.55654ZM0.633156 3.45366L1.1184 3.33309L1.11826 3.3325L0.633156 3.45366ZM0.674582 3.2656L1.03397 3.61321L1.05001 3.59663L1.06446 3.57864L0.674582 3.2656ZM2.43237 0.760463L2.84293 1.04588L2.84515 1.04262L2.43237 0.760463ZM2.60294 0.761023L3.01427 0.476659L3.0099 0.470539L2.60294 0.761023ZM4.34952 3.28745L3.93823 3.57178L3.93857 3.57227L4.34952 3.28745ZM2.62243 1.37666H2.12243V1.37668L2.62243 1.37666ZM2.62291 11.164H3.12291V11.164L2.62291 11.164ZM2.38559 11.164H2.88559V11.164L2.38559 11.164ZM2.38461 1.37666H1.88461V1.37671L2.38461 1.37666ZM3.94763 3.22087C3.99678 3.15581 4.10404 3.06899 4.26375 3.06899V4.06899C4.48388 4.06899 4.64961 3.95064 4.74555 3.82364L3.94763 3.22087ZM4.26375 3.06899C4.42755 3.06899 4.53944 3.15962 4.59215 3.23727L3.76478 3.79893C3.8633 3.94406 4.03854 4.06899 4.26375 4.06899V3.06899ZM4.58975 3.23377L2.92845 0.830696L2.10588 1.39936L3.76718 3.80243L4.58975 3.23377ZM2.10665 0.82958C1.26627 2.03816 0.843749 2.64151 0.627111 2.94469C0.516817 3.09904 0.466502 3.16621 0.443666 3.19466C0.430634 3.2109 0.439509 3.19804 0.460955 3.17826C0.474737 3.16556 0.494919 3.14876 0.521385 3.13182C0.547218 3.11527 0.569905 3.1048 0.567555 3.10593L1.00091 4.00716C1.03208 3.99216 1.08309 3.96483 1.13878 3.91349C1.17449 3.88057 1.20365 3.84538 1.22349 3.82066C1.2664 3.76721 1.33216 3.67803 1.44073 3.52608C1.66184 3.21666 2.08824 2.60769 2.92768 1.40048L2.10665 0.82958ZM0.574579 3.10262C0.714191 3.03814 0.867594 3.06213 0.974808 3.13522C1.0697 3.19992 1.10613 3.2837 1.1184 3.33309L0.147909 3.57422C0.181624 3.70991 0.262155 3.85965 0.411509 3.96148C0.573183 4.0717 0.791403 4.10398 0.993881 4.01047L0.574579 3.10262ZM1.11826 3.3325C1.12902 3.3756 1.12888 3.4184 1.11968 3.45919C1.11099 3.49771 1.08898 3.55634 1.03397 3.61321L0.315193 2.91798C0.133743 3.10557 0.0963653 3.36784 0.148056 3.57481L1.11826 3.3325ZM1.06446 3.57864C1.16895 3.4485 2.19169 1.98262 2.84291 1.04587L2.02183 0.475055C1.69114 0.950733 1.27458 1.54844 0.929565 2.04107C0.757002 2.28747 0.602692 2.50707 0.48609 2.67181C0.427727 2.75426 0.379319 2.82226 0.343013 2.87271C0.324821 2.89799 0.310234 2.91807 0.299253 2.93299C0.28672 2.95002 0.283068 2.95459 0.284706 2.95255L1.06446 3.57864ZM2.84515 1.04262C2.79212 1.1202 2.67999 1.21069 2.51765 1.21069V0.210693C2.29001 0.210693 2.11647 0.336579 2.01959 0.478309L2.84515 1.04262ZM2.51765 1.21069C2.34644 1.21069 2.24 1.11318 2.19597 1.05151L3.0099 0.470539C2.92007 0.344687 2.75221 0.210693 2.51765 0.210693V1.21069ZM2.19165 1.04536L3.93823 3.57178L4.7608 3.00312L3.01422 0.476691L2.19165 1.04536ZM3.93857 3.57227C3.89194 3.50499 3.88246 3.44116 3.883 3.39933C3.88354 3.35784 3.89456 3.29227 3.94526 3.22404L4.74792 3.82047C4.84589 3.68863 4.88129 3.5387 4.88292 3.41224C4.88456 3.28542 4.8529 3.136 4.76047 3.00263L3.93857 3.57227ZM2.50352 1.711C2.3344 1.711 2.2271 1.61469 2.18139 1.55097C2.13523 1.48663 2.12243 1.42333 2.12243 1.37666H3.12243C3.12243 1.23844 3.08307 1.09231 2.9939 0.968025C2.90518 0.844365 2.73843 0.710997 2.50352 0.710997V1.711ZM2.12243 1.37668L2.12291 11.1641L3.12291 11.164L3.12243 1.37663L2.12243 1.37668ZM2.12291 11.164C2.12291 11.1185 2.13524 11.0555 2.18134 10.9909C2.22739 10.9263 2.33504 10.83 2.50401 10.83V11.83C2.73926 11.83 2.90636 11.6964 2.9953 11.5718C3.08427 11.4471 3.12291 11.3012 3.12291 11.164H2.12291ZM2.50401 10.83C2.67532 10.83 2.78258 10.9282 2.82727 10.9908C2.87283 11.0547 2.88559 11.1174 2.88559 11.164H1.88559C1.88559 11.3022 1.9249 11.4479 2.01335 11.5718C2.10093 11.6945 2.26739 11.83 2.50401 11.83V10.83ZM2.88559 11.164L2.88461 1.37661L1.88461 1.37671L1.88559 11.1641L2.88559 11.164ZM2.88461 1.37666C2.88461 1.42435 2.87139 1.48766 2.82545 1.55151C2.78046 1.61404 2.67353 1.711 2.50352 1.711V0.710997C2.26821 0.710997 2.10182 0.845016 2.01371 0.967486C1.92464 1.09128 1.88461 1.23742 1.88461 1.37666H2.88461Z" fill="#00A651"/>
</svg>
